<svg xmlns="http://www.w3.org/2000/svg" width="1056.48" height="49.69" viewBox="0 0 1056.48 49.69"><defs><style>.cls-1{fill:#111214;}.cls-2{fill:#fff;}.cls-3{fill:#cc0e0e;}.cls-4{fill:none;stroke-linecap:round;stroke-width:3px;}.cls-4,.cls-5{stroke:#000;stroke-linejoin:round;}.cls-5{stroke-width:2.19px;}</style></defs><title>sprite-additional-options-icons</title><g id="Layer_22" data-name="Layer 22"><path class="cls-1" d="M57.52,3H48.09A24.67,24.67,0,0,0,45.5,0H14.43a25.66,25.66,0,0,0-2.6,3H2.48C.56,3-.63,6.34.35,8L3,12l4,7A22.64,22.64,0,0,0,30,40.54a22.94,22.94,0,0,0,7.36-1.2,2.78,2.78,0,0,0,.43.31l12.13-8.56,0-.24a2.48,2.48,0,0,0-.42-1.1A22,22,0,0,0,52.88,19L57,12l2.66-4C60.63,6.34,59.44,3,57.52,3ZM4.33,9.37A2.17,2.17,0,1,1,6.49,7.2,2.17,2.17,0,0,1,4.33,9.37Zm24.33,27a18.19,18.19,0,0,1-11-31.52h8.24V17.51h2.77Zm2.43,0V17.51h2.6V4.84h8.59A18.18,18.18,0,0,1,31.09,36.37Zm24.58-27A2.17,2.17,0,1,1,57.84,7.2,2.16,2.16,0,0,1,55.67,9.37Z"/><circle class="cls-2" cx="45.58" cy="32.2" r="11.09"/><path class="cls-3" d="M45.58,25.77a6.44,6.44,0,1,1-6.43,6.43,6.44,6.44,0,0,1,6.43-6.43m0-2.22a8.65,8.65,0,1,0,8.65,8.65,8.65,8.65,0,0,0-8.65-8.65Z"/><rect class="cls-3" x="44.47" y="24.42" width="2" height="15.57" transform="translate(36.09 -22.72) rotate(45)"/></g><g id="Layer_23" data-name="Layer 23"><path class="cls-1" d="M152.6,9a4,4,0,0,1,3.8,4v3H164v7h-7.6v4a4,4,0,0,1-3.8,4H121c-2.09,0-6-3.31-6-5.4l-7.4-2V25.9c0,.72-.59,2.1-1.3,2.1s-1.3-1.38-1.3-2.1v-12c0-.72.58-1.9,1.3-1.9s1.3,1.18,1.3,1.9V16L115,13.8c0-2.09,3.91-4.8,6-4.8h31.6m0-3H121c-2.71,0-6.83,2.33-8.38,5.38l-2.37.71a4.38,4.38,0,0,0-4-3.09c-2.77,0-4.3,2.9-4.3,4.9v12c0,2.08,1.53,5.1,4.3,5.1,2.12,0,3.52-1.78,4-3.54l2.3.61C114.19,31.18,118.19,34,121,34h31.6a7,7,0,0,0,6.8-7V26H164a3,3,0,0,0,3-3V16a3,3,0,0,0-3-3h-4.6a7,7,0,0,0-6.8-7Z"/><path class="cls-1" d="M125.5,21h-14a1.5,1.5,0,0,1,0-3H124V1.5A1.5,1.5,0,0,1,125.5,0h37A1.5,1.5,0,0,1,164,1.5v13a1.5,1.5,0,0,1-3,0V3H127V19.5A1.5,1.5,0,0,1,125.5,21Z"/><circle class="cls-2" cx="160" cy="30.4" r="11"/><path class="cls-3" d="M160,24a6.38,6.38,0,1,1-6.38,6.38A6.38,6.38,0,0,1,160,24m0-2.2a8.58,8.58,0,1,0,8.58,8.58A8.58,8.58,0,0,0,160,21.82Z"/><rect class="cls-3" x="158.9" y="22.68" width="1.98" height="15.44" transform="translate(68.33 -104.15) rotate(45)"/><rect class="cls-1" x="100" y="13.6" width="3.6" height="2"/><rect class="cls-1" x="100" y="18.6" width="3.6" height="2"/><rect class="cls-1" x="100" y="23.8" width="3.6" height="2"/></g><g id="Layer_24" data-name="Layer 24"><path d="M225.89,2.52A1.66,1.66,0,1,0,223.05.8L200.24,38.63a1.67,1.67,0,0,0,.24,2,1.61,1.61,0,0,0,.32.25,1.66,1.66,0,0,0,2.28-.56Zm0,0"/><path d="M242.72,36.68l10.2-17.55a1.78,1.78,0,0,0-.17-2.36c-6.48-7.57-18.11-5.25-24.6-12.83-.48-.63-1.12-.7-1.49-.06q-5.1,8.78-10.2,17.55a2,2,0,0,0,.17,2.35c6.48,7.58,18.11,5.26,24.6,12.84.48.62,1.12.69,1.49.06ZM250.5,18l-2.81,4.84a17.88,17.88,0,0,0-5-3.33c.93-1.62,1.87-3.23,2.81-4.85a18,18,0,0,1,5,3.34Zm-28.77-.37,3.2-5.5a17.6,17.6,0,0,0,5.31,3.45l2.81-4.84a59.08,59.08,0,0,0,6.23,1.94l-2.81,4.85a61.57,61.57,0,0,1-6.23-1.95l-3.2,5.5a17.6,17.6,0,0,1-5.31-3.45ZM224.19,26,227,21.09A57.62,57.62,0,0,0,233.23,23l-2.86,4.92A60.57,60.57,0,0,1,224.19,26Zm9.08-3,3.2-5.5a52.11,52.11,0,0,1,6.21,2q-1.6,2.75-3.2,5.5a52.11,52.11,0,0,0-6.21-2ZM236.66,30,239.51,25a18,18,0,0,1,5,3.32l-2.86,4.91a17.88,17.88,0,0,0-5-3.31Zm0,0"/></g><g id="Layer_25" data-name="Layer 25"><path d="M330,13.28v4a3,3,0,0,0,3,3h10.48L348,23.75V34.48l-2.74,4.8H344v-2a3,3,0,0,0-3-3h-3a3,3,0,0,0-3,3v4H321.24l-5.12-5.12a3,3,0,0,0-1.95-.88L308,34.94V17.28h2a3,3,0,0,0,3-3v-1h17m3-3H310v4h-5v23.5l9,.5,6,6h18v-7h3v5h6l4-7v-13l-6.5-5H333v-7Z"/><path d="M333.5,8.28h-23a1.5,1.5,0,0,1,0-3h23a1.5,1.5,0,1,1,0,3Z"/><path d="M301.5,38.28a1.5,1.5,0,0,1-1.5-1.5v-23a1.5,1.5,0,1,1,3,0v23A1.5,1.5,0,0,1,301.5,38.28Z"/><path d="M322,13.28a1.5,1.5,0,0,1-1.5-1.5v-5a1.5,1.5,0,1,1,3,0v5A1.5,1.5,0,0,1,322,13.28Z"/><line class="cls-4" x1="301.5" y1="24.78" x2="306.5" y2="24.78"/><polygon class="cls-3" points="342 4.28 331 20.28 337 20.28 335 31.28 346 16.28 340 16.28 342 4.28"/><path class="cls-2" d="M342,4.28l-2,12h6l-11,15,2-11h-6l11-16M343.73,0l-2.55,3.71-11,16-1.08,1.57h6.7L334,31.1l-.78,4.27,2.57-3.5,11-15L348,15.28h-6.79L343,4.44,343.73,0Z"/></g><g id="Layer_26" data-name="Layer 26"><path class="cls-1" d="M454,12.79a1.13,1.13,0,0,1,1,1l-.52,11.8v.13a1.15,1.15,0,0,1-.87,1.11H426.09A1.33,1.33,0,0,1,425,25.68V13.79a1.22,1.22,0,0,1,1.09-1H454m0-3H426.09a4.19,4.19,0,0,0-4.09,4V25.68a4.29,4.29,0,0,0,4.09,4.11h27.52a4.09,4.09,0,0,0,3.87-4.11L458,13.79a4.11,4.11,0,0,0-4-4Z"/><path class="cls-1" d="M418.14,29.79H420a.65.65,0,0,0,.62-.64V10.79c0-.34-.28-1-.62-1h-1.83c-.34,0-.61.66-.61,1V29.15A.64.64,0,0,0,418.14,29.79Z"/><rect class="cls-1" x="456.05" y="16.92" width="5.1" height="4.08" rx="1.22" transform="translate(917.2 37.91) rotate(-180)"/><circle class="cls-1" cx="447.59" cy="18.85" r="1.94"/><circle class="cls-1" cx="432.31" cy="18.85" r="1.94"/><circle class="cls-2" cx="453.81" cy="31.39" r="10.19"/><path class="cls-3" d="M453.81,25.48a5.91,5.91,0,1,1-5.91,5.91,5.92,5.92,0,0,1,5.91-5.91m0-2a8,8,0,1,0,7.95,8,8,8,0,0,0-7.95-7.95Z"/><rect class="cls-3" x="452.79" y="24.23" width="1.84" height="14.31" transform="translate(155.08 -311.62) rotate(45)"/><rect class="cls-1" x="414.06" y="9.79" width="2.85" height="19.97" rx="1.43"/><path class="cls-1" d="M412.23,9h0a4.53,4.53,0,0,0-.13-.64L411,4.75l-1.07-3.59C409.71.47,409.37.09,409,0V0h-3.2c-.41,0-.81.39-1,1.16l-1.08,3.59-1.07,3.58a4.53,4.53,0,0,0-.13.64H401a1,1,0,0,0-1,1V28.74a1,1,0,0,0,1,1h1.6v0l1.07,3.58L404.77,37c.23.77.63,1.84,1,1.84H409a11.16,11.16,0,0,0,.91-1.84L411,33.37l1.08-3.58v0h.16a1.23,1.23,0,0,0,1.22-1.23V10.19A1.22,1.22,0,0,0,412.23,9Zm-3.36-6.48c.37,0,.67.9.67,2s-.3,2-.67,2-.68-.9-.68-2S408.49,2.49,408.87,2.49Zm0,33.14c-.38,0-.68-.91-.68-2s.3-2,.68-2,.67.9.67,2S409.24,35.63,408.87,35.63Z"/></g><g id="Layer_27" data-name="Layer 27"><path d="M527.44,5H516c-.77,0-2.39,1.31-2.39,2.08V18.51a1.39,1.39,0,0,0,1.39,1.4H527.5c.77,0,2-.62,2-1.4V7.08A2.83,2.83,0,0,0,527.44,5Zm-.94,12h-10V8h10Z"/><path d="M538,8h-3.21V4.45C534.78,2.29,533,0,530.87,0H512.62c-2.16,0-3.92,2.29-3.92,4.45v36A4.4,4.4,0,0,0,506,44.52v1.79a1.4,1.4,0,0,0,1.39,1.4h28.78a1.4,1.4,0,0,0,1.4-1.4V44.52a4.4,4.4,0,0,0-2.75-4.07V30.8h.91a.91.91,0,0,1,.91.91v3.55a3.7,3.7,0,1,0,7.4,0V14A6,6,0,0,0,538,8ZM511.5,4.45c0-.62.5-1.45,1.12-1.45h18.25c.62,0,1.12.83,1.12,1.45V40.13H511.5Zm23.23,40.46h-26v-.39a1.6,1.6,0,0,1,1.59-1.6h22.8a1.6,1.6,0,0,1,1.59,1.6Zm6.48-9.65a.91.91,0,0,1-1.82,0V31.71a3.7,3.7,0,0,0-3.7-3.7h-.91V10.75h1.82v6.37A6,6,0,0,0,541.21,23Z"/><path class="cls-3" d="M501,39.73a2.17,2.17,0,0,1-1.72-.92,1.38,1.38,0,0,1-.15-1.31A14.15,14.15,0,0,1,500.53,35l0,0-.22-2.26a7.73,7.73,0,0,1,3.89-8,15.34,15.34,0,0,1,7.38-1.61c.07,0,7.45.12,7.92,2a1,1,0,0,1-.55,1.19c-2.2,1.17-3.07,3-4,4.95a10.29,10.29,0,0,1-3.13,4.39,6.66,6.66,0,0,1-3.91,1.13,12.59,12.59,0,0,1-3.87-.68,15.5,15.5,0,0,0-1.68,2.73A1.42,1.42,0,0,1,501,39.73Zm3.35-8.62a13.67,13.67,0,0,0-1.8,1.57A22.23,22.23,0,0,1,504.36,31.11Z"/><path class="cls-2" d="M511.55,24.17c4,0,7.56,1,6.92,1.37-4.44,2.36-4.12,7.22-7.23,9.4a5.74,5.74,0,0,1-3.36,1,12.59,12.59,0,0,1-4.19-.85,16.55,16.55,0,0,0-2.23,3.45.46.46,0,0,1-.45.27c-.5,0-1.15-.49-1-.89,3-7.11,13.35-10.65,13.35-10.65h-.16a16.32,16.32,0,0,0-12,5.49,6.86,6.86,0,0,1,3.43-7.07,14.12,14.12,0,0,1,6.89-1.48m0-1.92A16.21,16.21,0,0,0,503.69,24a8.65,8.65,0,0,0-4.37,8.92l.19,1.92a14.1,14.1,0,0,0-1.25,2.29,2.3,2.3,0,0,0,.23,2.22A3.11,3.11,0,0,0,501,40.69a2.39,2.39,0,0,0,2.19-1.37,14.83,14.83,0,0,1,1.18-2,13.26,13.26,0,0,0,3.5.52,7.56,7.56,0,0,0,4.46-1.31,11,11,0,0,0,3.45-4.75c.89-1.88,1.66-3.5,3.58-4.52a2,2,0,0,0,1-2.28c-.32-1.28-1.58-1.77-3.65-2.2a26.72,26.72,0,0,0-5.2-.51Z"/></g><g id="Layer_28" data-name="Layer 28"><path class="cls-3" d="M621.53,26.23a2.53,2.53,0,0,0,5.06,0L635,14.78l-11.09,8.91a2.55,2.55,0,0,0-2.38,2.54Zm0,0"/><path d="M624.38,0a24.37,24.37,0,0,0-20.26,37.93h3l.07.07.08-.07h.12s0,0,0-.06l4.23-3.69-2.05-2.34-3.94,3.45a21.62,21.62,0,0,1-3-10.91c0-.19,0-.37,0-.56h4.85V20.72H603a21.71,21.71,0,0,1,4.57-10.07l3.4,3.4,2.19-2.2-3.44-3.44a21.57,21.57,0,0,1,12.58-5.64V8.34h3.1V2.71a21.6,21.6,0,0,1,14,6l-3.52,3.54L638,14.4,641.44,11a21.8,21.8,0,0,1,4.32,9.75H641v3.1h5c0,.19,0,.37,0,.56a21.4,21.4,0,0,1-2.94,10.86l-3.7-3.7-2.18,2.19,4.11,4.12a.35.35,0,0,1,0,.08h3.31A24.38,24.38,0,0,0,624.38,0Zm0,0"/></g><g id="Layer_29" data-name="Layer 29"><path class="cls-1" d="M733.17,35.82l-1.59-1.91a17.75,17.75,0,1,0-22.79-.1l-1.6,1.9a20.24,20.24,0,1,1,26,.11Z"/><path d="M723.9,24.49h-7.66l-1.46,4.37h-4.65L718,7.65h4.05L730,28.86h-4.65ZM717.42,21h5.3L720.05,13Z"/><path class="cls-3" d="M716.57,44.73a6.13,6.13,0,0,1-.53,2.62,3.88,3.88,0,0,1-1.51,1.73,4.12,4.12,0,0,1-2.25.61,4.22,4.22,0,0,1-2.24-.6,4,4,0,0,1-1.53-1.72,5.89,5.89,0,0,1-.54-2.58v-.5a6,6,0,0,1,.53-2.62A4.08,4.08,0,0,1,710,39.92a4.5,4.5,0,0,1,4.49,0A4.08,4.08,0,0,1,716,41.67a6,6,0,0,1,.54,2.61Zm-2.11-.45a4.26,4.26,0,0,0-.57-2.42,2,2,0,0,0-3.24,0,4.25,4.25,0,0,0-.58,2.39v.49a4.26,4.26,0,0,0,.57,2.4,2,2,0,0,0,3.25,0,4.38,4.38,0,0,0,.57-2.4Z"/><path class="cls-3" d="M724.16,45.43h-4v4.13h-2.08V39.46h6.57v1.68h-4.49v2.61h4Z"/><path class="cls-3" d="M731.94,45.43h-4v4.13h-2.08V39.46h6.58v1.68h-4.5v2.61h4Z"/><polygon points="731.34 35.96 731.34 29.21 738.09 35.96 731.34 35.96"/></g><g id="Layer_30" data-name="Layer 30"><path class="cls-5" d="M813.16,1s-2.7,1.42-1.18,6.83c1,3.51,4.83,10.58,9.18,10.58,9.41.12,5.76-10.11,5.76-10.11L813.16,1"/><path class="cls-2" d="M838.28,1.09H813.16s6.81,3.73,7.93,9,.19,8.37.19,8.37h17L844.11,17H855a8,8,0,0,0,4.35-7.27A7.55,7.55,0,0,0,855,2.61H844.2Z"/><path d="M838.28,19.51h-17a1.09,1.09,0,0,1-.88-.44,1.12,1.12,0,0,1-.17-1,17.5,17.5,0,0,0-.21-7.83c-1-4.67-7.32-8.18-7.39-8.22A1.1,1.1,0,0,1,812.1.82,1.1,1.1,0,0,1,813.16,0h25.12a1.24,1.24,0,0,1,.27,0l5.79,1.49H855a1.09,1.09,0,0,1,.4.07,8.6,8.6,0,0,1,5,8.11,9,9,0,0,1-5,8.27,1.12,1.12,0,0,1-.44.09H844.24l-5.7,1.42A1.09,1.09,0,0,1,838.28,19.51ZM822.6,17.32h15.55l5.7-1.41a1.09,1.09,0,0,1,.26,0h10.62a6.87,6.87,0,0,0,3.51-6.18,6.5,6.5,0,0,0-3.49-6H844.2a1.24,1.24,0,0,1-.27,0l-5.79-1.48H816.71c2.14,1.7,4.75,4.37,5.45,7.63A22.35,22.35,0,0,1,822.6,17.32Z"/><path class="cls-2" d="M838.28,1.21s4.08,3.8,4.08,8.52-4.08,8.57-4.08,8.57"/><path d="M839,19.09l-1.5-1.59s3.73-3.59,3.73-7.77S837.57,2.05,837.53,2L839,.41c.18.17,4.42,4.19,4.42,9.32S839.21,18.92,839,19.09Z"/><path class="cls-2" d="M844.2,2.61s3.53,1.7,3.53,7.12S844.2,17,844.2,17"/><path d="M844.7,17.94l-1-1.94c.11-.06,2.94-1.63,2.94-6.27s-2.8-6.08-2.92-6.14l1-2c.17.08,4.14,2.06,4.14,8.1S844.87,17.86,844.7,17.94Z"/><path class="cls-2" d="M817.11,7.4a7.11,7.11,0,0,1,1.24,5.17l-4.25,4.59-4.89-1.42-3.45-3.88L809.07,10l4-4.59Z"/><path class="cls-3" d="M811.66,18.62c-1.91,0-3.61-1.08-5.11-2A7.45,7.45,0,0,0,803,15h-.26l-.6.07.35-.49a9.61,9.61,0,0,1,1.07-1.3,8.48,8.48,0,0,0-2.93-.9,1.76,1.76,0,0,0-.58.09l-.52.15.18-.51a6.31,6.31,0,0,1,5.94-4.51,2.71,2.71,0,0,0-1-.21h-.17l-.6,0,.36-.48a6.94,6.94,0,0,1,5.8-3.09,8.17,8.17,0,0,1,5.16,1.89,5.65,5.65,0,0,1,.75.78l.68.82-1-.39a3,3,0,0,0-1.13-.23,5.64,5.64,0,0,0-3.19,1.49,6.36,6.36,0,0,1-2.06,1.19,5.27,5.27,0,0,0,.56.51l.36.26-.73.36a5.58,5.58,0,0,1-1.94.72,3.53,3.53,0,0,0,3.27,2,4.86,4.86,0,0,0,.92-.09l1.19-.24-1,.72a3.62,3.62,0,0,1-1.14.63,4.06,4.06,0,0,0,2.88,1.21A4.84,4.84,0,0,0,817,14.16l.8-.79-.28,1a7.75,7.75,0,0,1-.55,1.31C815.18,17.67,813.46,18.62,811.66,18.62Z"/><path class="cls-2" d="M810.09,4.19a7.87,7.87,0,0,1,5,1.83,6.14,6.14,0,0,1,.71.74,3.31,3.31,0,0,0-1.23-.24c-2.38,0-4,2.74-5.74,2.74h-.05a5.22,5.22,0,0,0,.94.94,6.12,6.12,0,0,1-2.29.85,1.55,1.55,0,0,1-.31,0,3.89,3.89,0,0,0,3.72,2.53,5.33,5.33,0,0,0,1-.09,2.64,2.64,0,0,1-1.48.64h-.06a4.41,4.41,0,0,0,3.43,1.69,5.13,5.13,0,0,0,3.48-1.44l.05-.06a6.31,6.31,0,0,1-.52,1.25c-1.86,2.09-3.53,2.81-5.05,2.81-3.41,0-6.1-3.59-8.63-3.59h-.29a9.75,9.75,0,0,1,1.34-1.54,10,10,0,0,0-3.42-1.08,2.39,2.39,0,0,0-.66.09,6,6,0,0,1,5.94-4.33,8.26,8.26,0,0,1,1,.06,4.51,4.51,0,0,0-2.24-.81h-.19a6.72,6.72,0,0,1,5.58-3m0-.55a7.25,7.25,0,0,0-6,3.21l-.7,1h0a6.72,6.72,0,0,0-3.9,4.24l-.35,1,1-.31a1.55,1.55,0,0,1,.5-.07,7.11,7.11,0,0,1,2.47.72,9.54,9.54,0,0,0-.84,1l-.7,1,1.21-.13.23,0a7.44,7.44,0,0,1,3.38,1.51c1.52,1,3.26,2.08,5.25,2.08s3.67-1,5.46-3l0,0,0,0a7.63,7.63,0,0,0,.57-1.36l.74-2.33-1.67,1.79-.05.06a4.57,4.57,0,0,1-3.08,1.26,3.67,3.67,0,0,1-2.35-.85,5.29,5.29,0,0,0,.79-.5l1.94-1.45-2.38.48a4.36,4.36,0,0,1-.87.09A3.27,3.27,0,0,1,808,11.53a8.21,8.21,0,0,0,1.63-.68l.32-.16.8-.4L810,9.76l-.21-.17a9.38,9.38,0,0,0,1.71-1.09,5.37,5.37,0,0,1,3-1.43,2.69,2.69,0,0,1,1,.2l2,.78-1.36-1.64a6,6,0,0,0-.78-.8,8.41,8.41,0,0,0-5.34-2Z"/><path class="cls-5" d="M823.82,6.38s-2.7,1.41-1.17,6.82c1,3.51,4.82,10.58,9.17,10.58,9.41.12,5.76-10.11,5.76-10.11L823.82,6.38"/><path class="cls-2" d="M848.94,6.42H823.82s6.81,3.73,7.94,9,.18,8.37.18,8.37h17l5.83-1.45h10.88A8,8,0,0,0,870,15a7.55,7.55,0,0,0-4.35-7.09H854.87Z"/><path d="M848.94,24.84h-17a1.09,1.09,0,0,1-1.05-1.41,17.53,17.53,0,0,0-.2-7.82c-1-4.69-7.33-8.19-7.39-8.23a1.09,1.09,0,0,1-.54-1.23,1.1,1.1,0,0,1,1.06-.82h25.12a.86.86,0,0,1,.28,0L855,6.85h10.65a1.06,1.06,0,0,1,.4.08,8.58,8.58,0,0,1,5,8.1,9,9,0,0,1-5,8.27,1.13,1.13,0,0,1-.44.1H854.91l-5.7,1.41Zm-15.68-2.19h15.55l5.7-1.41a1.15,1.15,0,0,1,.26,0h10.62A6.87,6.87,0,0,0,868.91,15a6.47,6.47,0,0,0-3.5-6H854.87a1.26,1.26,0,0,1-.28,0l-5.78-1.48H827.37c2.14,1.7,4.75,4.37,5.45,7.63A22.35,22.35,0,0,1,833.26,22.65Z"/><path class="cls-2" d="M848.94,6.54s4.08,3.8,4.08,8.52-4.08,8.57-4.08,8.57"/><path d="M849.7,24.42l-1.51-1.58s3.74-3.6,3.74-7.78-3.7-7.68-3.73-7.72l1.49-1.6c.18.17,4.42,4.19,4.42,9.32S849.87,24.25,849.7,24.42Z"/><path class="cls-2" d="M854.87,7.94s3.52,1.7,3.52,7.12-3.52,7.24-3.52,7.24"/><path d="M855.37,23.28l-1-2c.11-.06,2.93-1.63,2.93-6.27S854.5,9,854.38,8.92l1-2c.17.08,4.15,2.06,4.15,8.1S855.53,23.19,855.37,23.28Z"/><path class="cls-2" d="M827.77,12.73A7.14,7.14,0,0,1,829,17.9l-4.26,4.59-4.89-1.42-3.45-3.88,3.31-1.87,4-4.59Z"/><path class="cls-3" d="M822.32,24c-1.91,0-3.61-1.08-5.1-2a7.62,7.62,0,0,0-3.53-1.55l-.26,0-.6.06.35-.49a9.68,9.68,0,0,1,1.08-1.3,8.49,8.49,0,0,0-2.94-.89,1.81,1.81,0,0,0-.58.08l-.51.16.18-.51A6.29,6.29,0,0,1,816.35,13a2.72,2.72,0,0,0-1-.2h-.18l-.59.06.35-.49a7,7,0,0,1,5.8-3.09,8.17,8.17,0,0,1,5.17,1.89,6.28,6.28,0,0,1,.74.78l.69.82-1-.39a3,3,0,0,0-1.12-.23A5.62,5.62,0,0,0,822,13.61,6.3,6.3,0,0,1,820,14.8a5.35,5.35,0,0,0,.57.51l.35.27-.72.36a5.66,5.66,0,0,1-1.95.71,3.54,3.54,0,0,0,3.27,2,5,5,0,0,0,.93-.09l1.19-.24-1,.73a3.55,3.55,0,0,1-1.13.62,4,4,0,0,0,2.87,1.21,4.82,4.82,0,0,0,3.28-1.35l.79-.78-.28,1a6.94,6.94,0,0,1-.55,1.3C825.84,23,824.12,24,822.32,24Z"/><path class="cls-2" d="M820.75,9.52a7.87,7.87,0,0,1,5,1.83,6.14,6.14,0,0,1,.71.74,3.26,3.26,0,0,0-1.22-.24c-2.38,0-4,2.74-5.75,2.74h-.05a5.57,5.57,0,0,0,.94.94,6.12,6.12,0,0,1-2.29.85,1.63,1.63,0,0,1-.31,0,3.9,3.9,0,0,0,3.72,2.54,5.34,5.34,0,0,0,1-.1,2.55,2.55,0,0,1-1.48.64h0a4.38,4.38,0,0,0,3.43,1.69,5.06,5.06,0,0,0,3.47-1.44l.06-.06a7.15,7.15,0,0,1-.52,1.25c-1.87,2.09-3.53,2.81-5.06,2.81-3.41,0-6.1-3.59-8.63-3.59h-.29a9.75,9.75,0,0,1,1.34-1.54,10,10,0,0,0-3.42-1.08,2.07,2.07,0,0,0-.66.1,6,6,0,0,1,6-4.34,8.22,8.22,0,0,1,1,.06,4.48,4.48,0,0,0-2.23-.81h-.2a6.72,6.72,0,0,1,5.58-3m0-.54a7.22,7.22,0,0,0-6,3.2l-.71,1h0a6.67,6.67,0,0,0-3.89,4.25l-.36,1,1-.32a1.59,1.59,0,0,1,.5-.07,7.11,7.11,0,0,1,2.47.72,10.6,10.6,0,0,0-.84,1l-.69,1,1.2-.13h.23a7.33,7.33,0,0,1,3.38,1.51c1.53,1,3.26,2.07,5.25,2.07s3.67-1,5.46-3l0,0,0-.05a7.63,7.63,0,0,0,.57-1.36l.74-2.33-1.66,1.79.34.43-.39-.38a4.55,4.55,0,0,1-3.08,1.27,3.68,3.68,0,0,1-2.36-.85,4.82,4.82,0,0,0,.79-.5l1.94-1.44-2.38.47a4.28,4.28,0,0,1-.87.09,3.26,3.26,0,0,1-2.82-1.48,8.39,8.39,0,0,0,1.62-.68l.32-.16.8-.39-.71-.54-.21-.17a8.57,8.57,0,0,0,1.71-1.09,5.43,5.43,0,0,1,3-1.43,2.68,2.68,0,0,1,1,.2l2,.78-1.36-1.63a6.78,6.78,0,0,0-.77-.81,8.42,8.42,0,0,0-5.35-2Z"/></g><g id="Layer_31" data-name="Layer 31"><path class="cls-2" d="M903.13,12.23l10-1.07s6.91-7,8.28-7.18S946.62,1.45,948,1.3s9.62,5.35,9.62,5.35l9.51-1.05s2.4.71,2.84,4.75A8.87,8.87,0,0,1,968.25,16l-9.6,1L951.56,23s-25.65,2.88-27.2,3-9.6-4.86-9.6-4.86l-9.87,1.06"/><path d="M924.34,27.31c-1.72,0-6.22-2.55-9.89-4.83l-9.42,1-.28-2.6,9.87-1.06a1.33,1.33,0,0,1,.83.19c3.51,2.19,7.88,4.59,8.85,4.67l26.72-3,6.8-5.66a1.27,1.27,0,0,1,.69-.3l9-1a7.22,7.22,0,0,0,1.16-4.26c-.26-2.43-1.31-3.29-1.75-3.55l-9.15,1a1.26,1.26,0,0,1-.87-.21c-3.49-2.32-7.82-4.91-8.86-5.12L934.59,4l-13,1.31c-1,.42-4.65,3.83-7.58,6.81a1.31,1.31,0,0,1-.79.38l-10,1.07L903,10.94l9.49-1c4.61-4.68,7.55-7.11,8.74-7.24l13.11-1.32L947.86,0c1.2-.12,4.59,1.65,10.09,5.29l9-1a1.25,1.25,0,0,1,.51,0c.13,0,3.24,1,3.76,5.86a10.07,10.07,0,0,1-2,6.57,1.25,1.25,0,0,1-.89.5l-9.2,1L952.4,24a1.29,1.29,0,0,1-.7.29L924.5,27.3ZM921.63,5.25ZM948,2.6Z"/><path class="cls-2" d="M920.43,4.35s9.57,6.53,3.39,21.3"/><path d="M925,26.15l-2.41-1c5.67-13.53-2.57-19.47-2.92-19.72l1.47-2.15C921.27,3.34,931.54,10.58,925,26.15Z"/><path class="cls-2" d="M913.08,11.16s3.49,2.33,1.08,10"/><path d="M915.41,21.59l-2.49-.78c2-6.53-.48-8.5-.59-8.58l1.48-2.15C914,10.2,918.08,13.05,915.41,21.59Z"/><path class="cls-2" d="M947.47,1.61S955,7.52,950.1,23.86"/><path d="M951.35,24.23l-2.5-.74c4.58-15.31-2.11-20.8-2.18-20.85L948.28.59C948.62.85,956.44,7.24,951.35,24.23Z"/><path class="cls-2" d="M957.53,6.57s4.55,2.45,1.16,10.81"/><path d="M959.9,17.87l-2.42-1c2.86-7.06-.45-9.1-.59-9.18l1.26-2.29C958.37,5.54,963.69,8.53,959.9,17.87Z"/><path d="M904.28,22.12c-.93,0-2.42-1.77-2.73-4.65s.83-5,1.76-5.14h.12c1.08,0,2.42,1.64,2.7,4.28a8.42,8.42,0,0,1-.51,4.07c-.35.83-.85,1.4-1.26,1.44Z"/><path d="M903.55,14a4.64,4.64,0,0,1,1.1,2.81,6.73,6.73,0,0,1-.52,3.59,5.93,5.93,0,0,1-1.1-3,5.46,5.46,0,0,1,.52-3.36m-.12-3.12h-.28c-2.08.23-3.47,3.26-3.09,6.79s2.22,6,4.22,6h.24c2.09-.23,3.47-3.64,3.09-7.16-.36-3.36-2.2-5.61-4.18-5.61Z"/><circle class="cls-2" cx="952.76" cy="23.19" r="9.33"/><path class="cls-3" d="M952.76,17.78a5.41,5.41,0,1,1-5.41,5.41,5.41,5.41,0,0,1,5.41-5.41m0-1.86A7.28,7.28,0,1,0,960,23.19a7.28,7.28,0,0,0-7.27-7.27Z"/><rect class="cls-3" x="951.82" y="16.65" width="1.68" height="13.09" transform="translate(295.43 -666.84) rotate(45)"/></g><g id="Layer_32" data-name="Layer 32"><circle class="cls-2" cx="1025.57" cy="21.15" r="21.15"/><path d="M1025.57,2.61A18.55,18.55,0,1,1,1007,21.15a18.57,18.57,0,0,1,18.54-18.54m0-2.61a21.16,21.16,0,1,0,21.16,21.15A21.15,21.15,0,0,0,1025.57,0Z"/><path d="M1034.37,14.08a8.37,8.37,0,0,0-.62-.7l-.12-.14c-.19-.19-.38-.36-.58-.53a2.73,2.73,0,0,0-.25-.23c-.15-.13-.31-.25-.47-.37l-.42-.31-.39-.24c-.17-.1-.34-.22-.51-.31h0l0,0-.22-.11-.75-.36-.34-.13-.68-.25-.4-.11-.65-.17-.46-.07c-.21,0-.41-.08-.62-.1l-.54,0-.55,0h-.19l-.49,0-.39,0c-.29,0-.57.06-.85.1l-.19,0c-.33.06-.66.13-1,.21l-.07,0h0c-.34.09-.67.2-1,.32l-.09,0c-.33.13-.64.27-1,.43l-.08,0c-.3.15-.6.32-.89.5l-.09.06a8.68,8.68,0,0,0-.79.56l-.14.11q-.34.27-.66.57l-.2.18c-.18.18-.35.36-.52.55s-.17.19-.26.29l-.38.49c-.1.14-.21.26-.3.41s-.2.31-.3.47-.19.29-.27.44h0v0a8.58,8.58,0,0,0-.54,1.15c-.05.11-.08.22-.13.33q-.16.45-.3.93l-.09.37c-.08.32-.14.64-.19,1,0,.12,0,.23,0,.35a11.69,11.69,0,0,0-.08,1.32c0,.33,0,.66.05,1,0,.12,0,.24,0,.36s.06.4.09.6.09.47.14.7.08.34.13.5h0v0c.09.31.2.62.32.92a.65.65,0,0,1,0,.13c.13.31.28.62.43.92,0,0,0,.05,0,.07a9,9,0,0,0,.53.91l0,0c.19.29.4.57.61.84l0,.06a8.42,8.42,0,0,0,.63.71l.11.13c.18.19.38.36.58.54l.24.22c.16.13.33.25.5.37s.26.21.4.3a3.34,3.34,0,0,0,.4.25,5.19,5.19,0,0,0,.5.31h0l0,0a12.22,12.22,0,0,0,1.16.54l.32.12c.31.11.61.21.93.3l.37.1c.32.07.64.13,1,.18l.34,0a11.71,11.71,0,0,0,1.32.09c.33,0,.66,0,1-.05l.36,0,.6-.09c.23,0,.47-.09.7-.15l.5-.12h0a9.07,9.07,0,0,0,.92-.32l.13-.05a9.58,9.58,0,0,0,.92-.42l.08,0a10.11,10.11,0,0,0,.9-.53l0,0a9.45,9.45,0,0,0,.82-.59l.08-.06c.24-.19.46-.4.68-.61l.16-.14c.18-.17.34-.36.51-.55l.25-.27.35-.45c.11-.15.22-.29.32-.44l.22-.35c.11-.19.24-.37.35-.56,0,0,0,0,0,0,.2-.38.38-.76.54-1.15,0-.11.08-.22.12-.33a8.37,8.37,0,0,0,.3-.93c0-.12.07-.25.1-.37.07-.32.13-.64.18-1l.06-.34a11.62,11.62,0,0,0,.07-1.31c0-.34,0-.67,0-1,0-.12,0-.24,0-.36s0-.4-.08-.6-.09-.47-.15-.7-.08-.34-.13-.5h0v0c-.09-.31-.2-.62-.31-.92,0,0,0-.09,0-.13-.13-.31-.27-.62-.43-.92l0-.07c-.17-.31-.34-.61-.53-.91l0,0c-.19-.29-.39-.57-.6-.83Zm-9-2.48c.25,0,.49,0,.74,0l.37,0a7.25,7.25,0,0,1,1,.16l.27.06.78.22.35.13c.22.08.44.18.66.28a1.24,1.24,0,0,1,.2.1L1030,14a2.64,2.64,0,0,1-.74,2.22l-2.56,2.56-.09,0h0l-.12-.06V14.61a3.84,3.84,0,0,0-.07-.76c0-.07,0-.14,0-.2a5.18,5.18,0,0,0-.17-.56l-.06-.17a4.48,4.48,0,0,0-.34-.65l-.08-.12a4.14,4.14,0,0,0-.37-.46l-.06-.08Zm-.49,9a.81.81,0,0,1,.19-.18l.16-.1a.79.79,0,0,1,.67,0l.16.1a1.26,1.26,0,0,1,.2.2.79.79,0,0,1,0,1,1,1,0,0,1-.2.2l-.16.11a.86.86,0,0,1-.67,0,.91.91,0,0,1-.16-.11.81.81,0,0,1-.19-.18.66.66,0,0,1-.12-.17.89.89,0,0,1,0-.68.94.94,0,0,1,.12-.18Zm-6.56-5.71a9.05,9.05,0,0,1,.81-.83l.13-.12a9.64,9.64,0,0,1,2.19-1.44l0,0a8.42,8.42,0,0,1,1.26-.49l.5.25a2.57,2.57,0,0,1,1.44,2.33V18.7l-.12.05h0l-.09,0-2.57-2.56a4.28,4.28,0,0,0-.61-.5l-.1-.07a5.19,5.19,0,0,0-.66-.35l-.12,0a3.62,3.62,0,0,0-.73-.22h0a3.84,3.84,0,0,0-.76-.07h-.1l-.34,0h-.16l.07-.07Zm-2.13,6.87-.15.18c0-.28,0-.55,0-.82a9.24,9.24,0,0,1,.06-1.05c0-.09,0-.17,0-.25a6.68,6.68,0,0,1,.13-.78c0-.1.06-.2.08-.31s.13-.45.2-.68.08-.23.13-.34.16-.4.25-.6l.1-.21,1.44-.21a2.63,2.63,0,0,1,2.21.74l2.57,2.56a.36.36,0,0,0,0,.09l0,0,0,.12h-3.62c-.17,0-.34,0-.51,0a.86.86,0,0,1-.17,0l-.32.06-.19.06-.29.09-.19.08a2.06,2.06,0,0,0-.26.12l-.2.11-.24.13-.18.14-.22.15-.17.16-.2.18-.15.18Zm4.12,3.43-.09.12c-.07.1-.14.19-.2.29l-.08.16a2.34,2.34,0,0,0-.15.27c0,.07,0,.13-.08.19s-.07.18-.11.28,0,.13-.05.19-.06.19-.08.28l0,.22a1.26,1.26,0,0,0,0,.28c0,.07,0,.14,0,.22a2.43,2.43,0,0,0,0,.27c0,.08,0,.16,0,.23s0,.16,0,.24l-.07-.06a9.37,9.37,0,0,1-.78-.76,1.07,1.07,0,0,1-.14-.16,9.56,9.56,0,0,1-1.38-2,1.17,1.17,0,0,0,0-.11,10.86,10.86,0,0,1-.45-1.06.14.14,0,0,0,0-.07l.87-1.17a2.64,2.64,0,0,1,2.09-1.05h3.62l0,.12,0,.05a.36.36,0,0,0,0,.09l-2.57,2.56a3.9,3.9,0,0,0-.33.38Zm5.91,5.46c-.32,0-.64,0-1,0l-.37,0c-.31,0-.62-.06-.93-.11l-.23,0a11.06,11.06,0,0,1-1.13-.3,1,1,0,0,1-.22-.09,9.11,9.11,0,0,1-.86-.35l-.18-.08-.2-1.45a2.59,2.59,0,0,1,.73-2.21l2.57-2.56.09,0h0l.12.05v3.63a4.07,4.07,0,0,0,0,.5l0,.18c0,.1,0,.21.06.32l.06.19c0,.1,0,.19.08.28l.09.2c0,.09.07.18.11.26a2,2,0,0,1,.11.2c0,.08.09.16.14.23l.13.19.16.22.16.17.18.2.18.15.17.15h-.16Zm6.58-3.3q-.36.41-.75.78l-.16.14a9.52,9.52,0,0,1-2,1.37l-.11.05a8.79,8.79,0,0,1-1.06.44l-.07,0-1.17-.87a2.64,2.64,0,0,1-1-2.09V23.62l.12-.05,0,0,.1,0,2.56,2.56a4.16,4.16,0,0,0,.61.5l.09.07a6,6,0,0,0,.66.35l.12,0a3.83,3.83,0,0,0,.73.22l.08,0a4.77,4.77,0,0,0,.76.07h0a4.53,4.53,0,0,0,.52,0l-.07.08Zm2.13-6.87.15-.17a7.38,7.38,0,0,1,0,.82,9.2,9.2,0,0,1-.06,1,2.34,2.34,0,0,1,0,.26,6.88,6.88,0,0,1-.13.77c0,.1-.05.21-.08.31s-.12.45-.2.67-.09.24-.13.35a6.14,6.14,0,0,1-.25.59c0,.08-.07.15-.1.22l-1.44.2a2.59,2.59,0,0,1-2.21-.73l-2.57-2.57a.36.36,0,0,0,0-.09l0,0a.61.61,0,0,0,0-.12h3.63a4.19,4.19,0,0,0,.5,0l.17,0a3,3,0,0,0,.32-.06l.2-.06.28-.08.2-.09.26-.11.19-.11.24-.14.19-.13.21-.16.18-.16.19-.18.15-.18Zm-.32-2.43-.88,1.15a2.62,2.62,0,0,1-2.08,1.05H1028a.5.5,0,0,0,0-.13l0,0,0-.09,2.56-2.56a3.9,3.9,0,0,0,.33-.38l.11-.15c.06-.09.13-.17.18-.26l.1-.19c0-.08.09-.16.13-.25a1.19,1.19,0,0,0,.08-.2c0-.09.08-.17.11-.26l.06-.21c0-.09.05-.18.07-.27a1.66,1.66,0,0,0,0-.22,2.56,2.56,0,0,0,0-.27,1.77,1.77,0,0,1,0-.23c0-.09,0-.18,0-.27a1.79,1.79,0,0,0,0-.23,2.12,2.12,0,0,0,0-.24l.08.07c.27.24.53.49.77.75l.15.16a9.58,9.58,0,0,1,1.37,2l.06.11a9.85,9.85,0,0,1,.44,1.06l0,.07Z"/><polyline class="cls-2" points="1026.48 41.5 1051.8 41.5 1051.8 26.5 1039.63 26.5"/><path d="M1051.8,43h-25.32V40h23.82V28h-10.67V25h12.17a1.5,1.5,0,0,1,1.5,1.5v15A1.5,1.5,0,0,1,1051.8,43Z"/><path class="cls-2" d="M1054.12,44.32h-.87c-1,0-2.77-1.28-2.77-2.32V26c0-1,1.73-2.95,2.77-2.95h.87c1,0,2.36,1.91,2.36,2.95V42A2.77,2.77,0,0,1,1054.12,44.32Z"/><path d="M1053.84,25.05a2.62,2.62,0,0,1,.64,1V41.88a1.29,1.29,0,0,1-.46.44h-.71a2.22,2.22,0,0,1-.83-.56V26.14a3.27,3.27,0,0,1,1-1.09h.39m.28-2h-.87c-1,0-2.77,1.91-2.77,2.95V42c0,1,1.73,2.32,2.77,2.32h.87a2.77,2.77,0,0,0,2.36-2.32V26c0-1-1.33-2.95-2.36-2.95Z"/><path class="cls-2" d="M1014,45.74a9.11,9.11,0,0,1-6.6,1.59l-5.85-5.43,1.81-6.24,4.95-4.4,2.39,4.22,5.86,5.07Z"/><path class="cls-3" d="M1005,46.52a8.46,8.46,0,0,1-1.73-.72l-.06,0-.05,0c-6.26-5.6-3.42-10-1.14-13.62,1.06-1.67,2.07-3.25,1.91-4.63l-.16-1.44,1.19.83a14.65,14.65,0,0,1,1.37,1.1c.63-1.49,1.16-2.88.86-3.87l-.38-1.23,1.21.42a8.51,8.51,0,0,1,5.51,5.24l0-.24,1.16.84a9.35,9.35,0,0,1,4,6.55,10.55,10.55,0,0,1-2.43,7.89,7.45,7.45,0,0,1-1,1l-2,1.62.93-2.36c.8-2-.41-3.65-1.58-5.22a10.79,10.79,0,0,1-1.41-2.24c-.09.11-.19.22-.27.33l-.64.85-.67-1.37a9.85,9.85,0,0,1-.88-2.12,4.48,4.48,0,0,0-1.85,4.8l.57,2.83-1.73-2.31a6,6,0,0,1-.66-1.07,4.68,4.68,0,0,0-1.14,2.87,5.78,5.78,0,0,0,1.64,4.2l1.87,1.89Z"/><path class="cls-2" d="M1007.79,23.91a7.8,7.8,0,0,1,5.45,8.86,5.32,5.32,0,0,0,1-3.11c5.49,4,4.17,10.35,1.47,13.49a7.36,7.36,0,0,1-1,.91c1.56-4-3.27-6.41-3.18-9a6.49,6.49,0,0,0-1.2,1.2c-.61-1.24-1.27-2.38-1-3.32a5.08,5.08,0,0,0-3.11,6,3.25,3.25,0,0,1-.82-2,5.89,5.89,0,0,0-.32,8.81l.08.07a8.46,8.46,0,0,1-1.6-.66c-8.83-7.89,1.51-13.06,1-17.84a12.42,12.42,0,0,1,2,1.71c.83-2,1.7-3.77,1.26-5.2m-2-2.08.75,2.46a4.63,4.63,0,0,1-.49,2.6c-.24-.19-.49-.37-.74-.55l-2.37-1.67.32,2.88c.13,1.15-.81,2.64-1.82,4.21-2.28,3.58-5.41,8.49,1.27,14.45l.1.09.11.06a9.14,9.14,0,0,0,1.86.79l5.56,1.77-4.28-4-.06-.06a5.19,5.19,0,0,1-1.42-3.69,3.88,3.88,0,0,1,.44-1.68l.18.24,3.45,4.62-1.13-5.66a3.91,3.91,0,0,1,.89-3.57c.18.45.4.88.62,1.32l.2.41.94,1.89.91-1.21c.3.49.65,1,1,1.43,1.34,1.8,2.12,3,1.49,4.59l-1.86,4.72,3.91-3.23a10.27,10.27,0,0,0,1.1-1.07,11.3,11.3,0,0,0,2.58-8.39,10,10,0,0,0-4.27-7l-1.08-.78a9.19,9.19,0,0,0-5.73-5.14l-2.43-.85Z"/></g></svg>